<?xml version="1.0" encoding="UTF-8" standalone="no"?>
<svg
   xmlns:dc="http://purl.org/dc/elements/1.1/"
   xmlns:cc="http://creativecommons.org/ns#"
   xmlns:rdf="http://www.w3.org/1999/02/22-rdf-syntax-ns#"
   xmlns:svg="http://www.w3.org/2000/svg"
   xmlns="http://www.w3.org/2000/svg"
   xmlns:sodipodi="http://sodipodi.sourceforge.net/DTD/sodipodi-0.dtd"
   xmlns:inkscape="http://www.inkscape.org/namespaces/inkscape"
   fill="#000000"
   height="24"
   viewBox="0 0 24 24"
   width="24"
   version="1.1"
   id="svg6"
   sodipodi:docname="ic_attach_money_black_24px.svg"
   inkscape:version="0.92.1 r15371">
  <metadata
     id="metadata12">
    <rdf:RDF>
      <cc:Work
         rdf:about="">
        <dc:format>image/svg+xml</dc:format>
        <dc:type
           rdf:resource="http://purl.org/dc/dcmitype/StillImage" />
      </cc:Work>
    </rdf:RDF>
  </metadata>
  <defs
     id="defs10" />
  <sodipodi:namedview
     pagecolor="#ffffff"
     bordercolor="#666666"
     borderopacity="1"
     objecttolerance="10"
     gridtolerance="10"
     guidetolerance="10"
     inkscape:pageopacity="0"
     inkscape:pageshadow="2"
     inkscape:window-width="1568"
     inkscape:window-height="859"
     id="namedview8"
     showgrid="false"
     inkscape:zoom="13.906433"
     inkscape:cx="-15.012355"
     inkscape:cy="8.5948657"
     inkscape:window-x="0"
     inkscape:window-y="27"
     inkscape:window-maximized="0"
     inkscape:current-layer="svg6" />
  <path
     d="m 17.444317,11.486359 c -2.05714,-0.534676 -2.718689,-1.087477 -2.718689,-1.9483947 0,-0.98779 0.915292,-1.6765245 2.446821,-1.6765245 1.613088,0 2.211199,0.7702953 2.265573,1.9030823 h 2.002769 C 21.377355,8.2058071 20.425813,6.7739643 18.531794,6.3117872 V 4.3271443 h -2.718689 v 1.957456 c -1.758086,0.3806165 -3.171804,1.5224657 -3.171804,3.271489 0,2.0933897 1.730899,3.1355547 4.259279,3.7427277 2.265574,0.543738 2.718688,1.34122 2.718688,2.184014 0,0.625298 -0.444053,1.622151 -2.446819,1.622151 -1.866833,0 -2.60088,-0.833731 -2.700565,-1.903082 H 12.47818 c 0.108747,1.984642 1.594963,3.099305 3.334925,3.47086 v 1.966517 h 2.718689 v -1.948393 c 1.767147,-0.335306 3.171803,-1.359344 3.171803,-3.217115 0,-2.573692 -2.202139,-3.452735 -4.25928,-3.98741 z"
     id="path2"
     style="fill:#4d4d4d;stroke-width:0.90622962"
     inkscape:connector-curvature="0" />
  <path
     d="M0 0h24v24H0z"
     fill="none"
     id="path4" />
  <g
     aria-label="R"
     transform="scale(0.98334701,1.016935)"
     style="font-style:normal;font-weight:normal;font-size:19.46728134px;line-height:1.25;font-family:sans-serif;letter-spacing:0px;word-spacing:0px;fill:#4d4d4d;fill-opacity:1;stroke:none;stroke-width:0.48668203"
     id="text16">
    <path
       d="m 8.6710577,13.277673 c 0.2503159,0.251916 0.1389252,0.130999 0.5254825,0.587264 0.3928947,0.456264 0.785789,1.083627 1.1786828,1.88209 l 1.94863,3.878248 H 10.261157 L 8.4456053,15.984665 C 7.9766669,15.034114 7.4299125,14.003577 6.9863221,13.693063 6.5490687,13.38255 4.7403159,13.502297 4.7403159,13.502297 v 5.997976 H 2.8202032 V 5.3085486 h 4.3345119 c 1.6222735,0 2.8326414,0.3390298 3.6311039,1.0170894 0.798463,0.6780596 1.197694,1.701486 1.197694,3.0702792 0,0.8935178 -0.209121,1.6349478 -0.627363,2.2242888 -0.411905,0.589342 -1.8929665,1.429335 -2.6850923,1.657467 z M 4.7403159,6.886463 v 5.03792 h 2.4143992 c 0.9252028,0 1.6222734,-0.21229 2.0912119,-0.63687 0.4752754,-0.430916 0.7129131,-1.061448 0.7129131,-1.8915958 0,-0.8301477 -0.2376377,-1.4543428 -0.7129131,-1.8725851 C 8.7769885,7.0987527 8.0799179,6.886463 7.1547151,6.886463 Z"
       style="font-style:normal;font-variant:normal;font-weight:normal;font-stretch:normal;font-family:sans-serif;-inkscape-font-specification:sans-serif;fill:#4d4d4d;stroke-width:0.48668203"
       id="path18"
       inkscape:connector-curvature="0"
       sodipodi:nodetypes="cccccccccccsssccccscscsc" />
  </g>
</svg>
