<?xml version="1.0" encoding="UTF-8" standalone="no"?>
<svg
   xmlns:dc="http://purl.org/dc/elements/1.1/"
   xmlns:cc="http://creativecommons.org/ns#"
   xmlns:rdf="http://www.w3.org/1999/02/22-rdf-syntax-ns#"
   xmlns:svg="http://www.w3.org/2000/svg"
   xmlns="http://www.w3.org/2000/svg"
   xmlns:sodipodi="http://sodipodi.sourceforge.net/DTD/sodipodi-0.dtd"
   xmlns:inkscape="http://www.inkscape.org/namespaces/inkscape"
   fill="#000000"
   height="24"
   viewBox="0 0 24 24"
   width="24"
   version="1.1"
   id="svg6"
   sodipodi:docname="ic_add_shopping_cart_black_24px.svg"
   inkscape:version="0.92.1 r15371">
  <metadata
     id="metadata12">
    <rdf:RDF>
      <cc:Work
         rdf:about="">
        <dc:format>image/svg+xml</dc:format>
        <dc:type
           rdf:resource="http://purl.org/dc/dcmitype/StillImage" />
      </cc:Work>
    </rdf:RDF>
  </metadata>
  <defs
     id="defs10" />
  <sodipodi:namedview
     pagecolor="#ffffff"
     bordercolor="#666666"
     borderopacity="1"
     objecttolerance="10"
     gridtolerance="10"
     guidetolerance="10"
     inkscape:pageopacity="0"
     inkscape:pageshadow="2"
     inkscape:window-width="717"
     inkscape:window-height="480"
     id="namedview8"
     showgrid="false"
     inkscape:zoom="9.8333333"
     inkscape:cx="12"
     inkscape:cy="12"
     inkscape:window-x="0"
     inkscape:window-y="27"
     inkscape:window-maximized="0"
     inkscape:current-layer="svg6" />
  <path
     d="M0 0h24v24H0zm18.31 6l-2.76 5z"
     fill="none"
     id="path2" />
  <path
     d="M11 9h2V6h3V4h-3V1h-2v3H8v2h3v3zm-4 9c-1.1 0-1.99.9-1.99 2S5.9 22 7 22s2-.9 2-2-.9-2-2-2zm10 0c-1.1 0-1.99.9-1.99 2s.89 2 1.99 2 2-.9 2-2-.9-2-2-2zm-9.83-3.25l.03-.12.9-1.63h7.45c.75 0 1.41-.41 1.75-1.03l3.86-7.01L19.42 4h-.01l-1.1 2-2.76 5H8.53l-.13-.27L6.16 6l-.95-2-.94-2H1v2h2l3.6 7.59-1.35 2.45c-.16.28-.25.61-.25.96 0 1.1.9 2 2 2h12v-2H7.42c-.13 0-.25-.11-.25-.25z"
     id="path4"
     style="fill:#4d4d4d" />
</svg>
